<svg xmlns="http://www.w3.org/2000/svg" viewBox="0 0 512 512">
  <rect width="512" height="512" rx="108" fill="#2563eb"/>
  <circle cx="256" cy="256" r="198" fill="#dff3ff"/>
  <path d="M98 210h316" stroke="#60a5fa" stroke-width="28" stroke-linecap="round"/>
  <path d="M164 156l184 200M348 156L164 356" stroke="#60a5fa" stroke-width="24" stroke-linecap="round"/>
  <circle cx="112" cy="196" r="58" fill="#fff" stroke="#172033" stroke-width="18"/>
  <circle cx="400" cy="196" r="58" fill="#fff" stroke="#172033" stroke-width="18"/>
  <circle cx="112" cy="316" r="58" fill="#fff" stroke="#172033" stroke-width="18"/>
  <circle cx="400" cy="316" r="58" fill="#fff" stroke="#172033" stroke-width="18"/>
  <rect x="180" y="196" width="152" height="120" rx="44" fill="#ffffff" stroke="#172033" stroke-width="18"/>
  <circle cx="256" cy="288" r="26" fill="#38bdf8" stroke="#172033" stroke-width="12"/>
  <path d="M228 178h56" stroke="#facc15" stroke-width="24" stroke-linecap="round"/>
  <path d="M86 196h52M112 170v52M374 196h52M400 170v52M86 316h52M112 290v52M374 316h52M400 290v52" stroke="#2563eb" stroke-width="16" stroke-linecap="round"/>
  <path d="M166 416h180" stroke="#16a34a" stroke-width="28" stroke-linecap="round"/>
</svg>
